<?xml version="1.0" encoding="UTF-8"?>
<svg xmlns="http://www.w3.org/2000/svg" viewBox="0 0 372.9 67.79">
  <defs>
    <style>
      .cls-1 {
        fill: #333240;
      }

      .cls-2 {
        fill: #dbf135;
      }

      .cls-3 {
        mix-blend-mode: multiply;
      }

      .cls-4 {
        isolation: isolate;
      }
    </style>
  </defs>
  <g class="cls-4">
    <g id="Layer_2" data-name="Layer 2">
      <g id="Layer_1-2" data-name="Layer 1">
        <g>
          <path class="cls-1" d="M0,3.36H5.32l11.2,45.71L27.79,3.36h6.72l11.27,45.71L56.99,3.36h5.32l-13.37,53.21h-6.3L31.15,10.01l-11.48,46.55h-6.3L0,3.36Z"/>
          <path class="cls-1" d="M65.64,3.36h5.39V56.57h-5.39V3.36Z"/>
          <path class="cls-1" d="M73.9,3.36h5.39V30.03L101.62,3.36h6.58l-19.04,22.47,21.14,30.73h-6.23l-18.27-26.81-6.51,7.7v19.11h-5.39V3.36Z"/>
          <path class="cls-1" d="M113.64,3.36h5.39V56.57h-5.39V3.36Z"/>
          <path class="cls-1" d="M134.9,0h5.6l23.8,63.01h-5.6L134.9,0Z"/>
          <path class="cls-1" d="M205.98,3.11l5.88,.02,20.37,53.26-5.53-.02-6.05-16.12-23.66-.06-6.13,16.08-5.53-.02L205.98,3.11Zm13,32.73l-10.08-26.84-10.22,26.79,20.3,.06Z"/>
          <path class="cls-1" d="M234.57,3.22l17.85,.05c10.36,.03,16.79,4.46,16.76,14.47-.02,6.51-3.67,10.63-9.42,12.79,3.22,1.41,5.03,3.79,6.77,8.98l5.69,17.03-5.6-.02-5.21-16.26c-1.87-5.89-4.25-7.78-11.18-7.8l-10.36-.03-.07,24.01h-5.39s.15-53.22,.15-53.22Zm16.66,24.83c7.77,.02,12.54-3.26,12.56-10.33,.02-8.12-5.5-10.03-12.08-10.04l-11.76-.03-.06,20.37,11.34,.03Z"/>
          <path class="cls-1" d="M311.14,50.78c-3.79,4.33-9.54,6.91-16.47,6.89-14.91-.04-24.12-12.04-24.08-27.72s9.32-27.63,24.23-27.59c6.93,.02,12.67,2.62,16.43,6.98l-3.93,3.14c-2.86-3.58-7.2-5.69-12.52-5.7-11.55-.03-18.79,10.03-18.83,23.19-.04,13.16,7.15,23.26,18.7,23.29,5.32,.01,9.67-2.07,12.55-5.64l3.91,3.16Z"/>
          <path class="cls-1" d="M312.37,3.49h5.39s-.06,23.68-.06,23.68l27.02,.07,.06-23.66h5.39s-.14,53.22-.14,53.22h-5.39s.07-25.15,.07-25.15l-27.02-.07-.07,25.13h-5.39s.15-53.22,.15-53.22Z"/>
          <path class="cls-1" d="M352.71,3.64h5.39s-.15,53.22-.15,53.22h-5.39s.15-53.22,.15-53.22Z"/>
          <g class="cls-3">
            <rect class="cls-2" x="173.9" y="38.79" width="199" height="29"/>
          </g>
        </g>
      </g>
    </g>
  </g>
</svg>